<mxfile host="65bd71144e">
    <diagram name="Page-1" id="y7i34u_7eSn4uYdkLCUt">
        <mxGraphModel dx="1219" dy="940" grid="0" gridSize="10" guides="1" tooltips="1" connect="1" arrows="1" fold="1" page="0" pageScale="1" pageWidth="850" pageHeight="1100" math="0" shadow="0">
            <root>
                <mxCell id="0"/>
                <mxCell id="1" parent="0"/>
                <mxCell id="1qt5TFDMoVAEqo-lHvC4-20" style="edgeStyle=orthogonalEdgeStyle;rounded=0;orthogonalLoop=1;jettySize=auto;html=1;entryX=0.5;entryY=0;entryDx=0;entryDy=0;" parent="1" source="1qt5TFDMoVAEqo-lHvC4-2" target="1qt5TFDMoVAEqo-lHvC4-5" edge="1">
                    <mxGeometry relative="1" as="geometry"/>
                </mxCell>
                <mxCell id="1qt5TFDMoVAEqo-lHvC4-2" value="Proses Deklarasi&amp;nbsp;&lt;div&gt;Pilih&lt;/div&gt;" style="rounded=0;whiteSpace=wrap;html=1;" parent="1" vertex="1">
                    <mxGeometry x="318.5" y="140" width="200" height="80" as="geometry"/>
                </mxCell>
                <mxCell id="1qt5TFDMoVAEqo-lHvC4-19" style="edgeStyle=orthogonalEdgeStyle;rounded=0;orthogonalLoop=1;jettySize=auto;html=1;entryX=0.5;entryY=0;entryDx=0;entryDy=0;" parent="1" source="1qt5TFDMoVAEqo-lHvC4-4" target="1qt5TFDMoVAEqo-lHvC4-2" edge="1">
                    <mxGeometry relative="1" as="geometry"/>
                </mxCell>
                <mxCell id="1qt5TFDMoVAEqo-lHvC4-4" value="Mulai" style="ellipse;whiteSpace=wrap;html=1;" parent="1" vertex="1">
                    <mxGeometry x="370" y="30" width="97" height="66" as="geometry"/>
                </mxCell>
                <mxCell id="1qt5TFDMoVAEqo-lHvC4-22" style="edgeStyle=orthogonalEdgeStyle;rounded=0;orthogonalLoop=1;jettySize=auto;html=1;entryX=0.5;entryY=0;entryDx=0;entryDy=0;" parent="1" source="1qt5TFDMoVAEqo-lHvC4-5" target="1qt5TFDMoVAEqo-lHvC4-7" edge="1">
                    <mxGeometry relative="1" as="geometry"/>
                </mxCell>
                <mxCell id="1qt5TFDMoVAEqo-lHvC4-5" value="&lt;div&gt;====================================&lt;/div&gt;&lt;div&gt;Aplikasi Kasir Suka Maju Bersama&lt;/div&gt;&lt;div&gt;&amp;nbsp; &amp;nbsp; &amp;nbsp; ====================================&lt;/div&gt;&lt;div&gt;1. Tambah Barang Baru&lt;/div&gt;&lt;div&gt;2. Tampilkan Semua Barang&lt;/div&gt;&lt;div&gt;&amp;nbsp; &amp;nbsp;3. Proses Transaksi&lt;/div&gt;&lt;div&gt;&amp;nbsp; &amp;nbsp;4. Tampilkan Metode&lt;/div&gt;&lt;div&gt;Pembayaran&lt;/div&gt;&lt;div&gt;5. Buat Laporan Penjualan&lt;/div&gt;&lt;div&gt;6. Simpan Transaksi ke File&lt;/div&gt;&lt;div&gt;7. Keluar&lt;/div&gt;" style="shape=parallelogram;perimeter=parallelogramPerimeter;whiteSpace=wrap;html=1;fixedSize=1;" parent="1" vertex="1">
                    <mxGeometry x="198.5" y="260" width="440" height="200" as="geometry"/>
                </mxCell>
                <mxCell id="1qt5TFDMoVAEqo-lHvC4-26" style="edgeStyle=orthogonalEdgeStyle;rounded=0;orthogonalLoop=1;jettySize=auto;html=1;entryX=0.5;entryY=0;entryDx=0;entryDy=0;" parent="1" source="1qt5TFDMoVAEqo-lHvC4-7" target="1qt5TFDMoVAEqo-lHvC4-25" edge="1">
                    <mxGeometry relative="1" as="geometry"/>
                </mxCell>
                <mxCell id="1qt5TFDMoVAEqo-lHvC4-7" value="&lt;div&gt;====================================&lt;/div&gt;&lt;div&gt;Masukkan pilihan Anda :&amp;nbsp;&lt;/div&gt;&lt;div&gt;pilihan&lt;/div&gt;&lt;div&gt;====================================&lt;/div&gt;" style="shape=parallelogram;perimeter=parallelogramPerimeter;whiteSpace=wrap;html=1;fixedSize=1;" parent="1" vertex="1">
                    <mxGeometry x="208.5" y="515" width="420" height="70" as="geometry"/>
                </mxCell>
                <mxCell id="1qt5TFDMoVAEqo-lHvC4-12" value="Selesai" style="ellipse;whiteSpace=wrap;html=1;" parent="1" vertex="1">
                    <mxGeometry x="360" y="2120" width="120" height="80" as="geometry"/>
                </mxCell>
                <mxCell id="1qt5TFDMoVAEqo-lHvC4-32" style="edgeStyle=orthogonalEdgeStyle;rounded=0;orthogonalLoop=1;jettySize=auto;html=1;entryX=0.5;entryY=0;entryDx=0;entryDy=0;" parent="1" source="1qt5TFDMoVAEqo-lHvC4-25" target="1qt5TFDMoVAEqo-lHvC4-27" edge="1">
                    <mxGeometry relative="1" as="geometry"/>
                </mxCell>
                <mxCell id="1qt5TFDMoVAEqo-lHvC4-25" value="Proses Menerima&lt;br&gt;Inputan Dari User" style="rounded=0;whiteSpace=wrap;html=1;" parent="1" vertex="1">
                    <mxGeometry x="318.5" y="640" width="200" height="80" as="geometry"/>
                </mxCell>
                <mxCell id="1qt5TFDMoVAEqo-lHvC4-35" style="edgeStyle=orthogonalEdgeStyle;rounded=0;orthogonalLoop=1;jettySize=auto;html=1;entryX=0.5;entryY=0;entryDx=0;entryDy=0;" parent="1" source="1qt5TFDMoVAEqo-lHvC4-27" target="1qt5TFDMoVAEqo-lHvC4-33" edge="1">
                    <mxGeometry relative="1" as="geometry"/>
                </mxCell>
                <mxCell id="1qt5TFDMoVAEqo-lHvC4-109" value="False" style="edgeLabel;html=1;align=center;verticalAlign=middle;resizable=0;points=[];" parent="1qt5TFDMoVAEqo-lHvC4-35" vertex="1" connectable="0">
                    <mxGeometry x="-0.3829" y="-1" relative="1" as="geometry">
                        <mxPoint as="offset"/>
                    </mxGeometry>
                </mxCell>
                <mxCell id="1qt5TFDMoVAEqo-lHvC4-27" value="Pilihan = 1" style="rhombus;whiteSpace=wrap;html=1;" parent="1" vertex="1">
                    <mxGeometry x="358.5" y="760" width="120" height="90" as="geometry"/>
                </mxCell>
                <mxCell id="1qt5TFDMoVAEqo-lHvC4-41" style="edgeStyle=orthogonalEdgeStyle;rounded=0;orthogonalLoop=1;jettySize=auto;html=1;entryX=0.5;entryY=0;entryDx=0;entryDy=0;" parent="1" source="1qt5TFDMoVAEqo-lHvC4-33" target="1qt5TFDMoVAEqo-lHvC4-34" edge="1">
                    <mxGeometry relative="1" as="geometry"/>
                </mxCell>
                <mxCell id="1qt5TFDMoVAEqo-lHvC4-111" value="False" style="edgeLabel;html=1;align=center;verticalAlign=middle;resizable=0;points=[];" parent="1qt5TFDMoVAEqo-lHvC4-41" vertex="1" connectable="0">
                    <mxGeometry x="-0.3067" y="1" relative="1" as="geometry">
                        <mxPoint as="offset"/>
                    </mxGeometry>
                </mxCell>
                <mxCell id="1qt5TFDMoVAEqo-lHvC4-61" style="edgeStyle=orthogonalEdgeStyle;rounded=0;orthogonalLoop=1;jettySize=auto;html=1;entryX=0;entryY=0.5;entryDx=0;entryDy=0;" parent="1" source="1qt5TFDMoVAEqo-lHvC4-33" target="1qt5TFDMoVAEqo-lHvC4-60" edge="1">
                    <mxGeometry relative="1" as="geometry"/>
                </mxCell>
                <mxCell id="1qt5TFDMoVAEqo-lHvC4-110" value="True" style="edgeLabel;html=1;align=center;verticalAlign=middle;resizable=0;points=[];" parent="1qt5TFDMoVAEqo-lHvC4-61" vertex="1" connectable="0">
                    <mxGeometry x="-0.248" relative="1" as="geometry">
                        <mxPoint as="offset"/>
                    </mxGeometry>
                </mxCell>
                <mxCell id="1qt5TFDMoVAEqo-lHvC4-33" value="Pilihan = 2" style="rhombus;whiteSpace=wrap;html=1;" parent="1" vertex="1">
                    <mxGeometry x="358.5" y="900" width="120" height="90" as="geometry"/>
                </mxCell>
                <mxCell id="1qt5TFDMoVAEqo-lHvC4-42" style="edgeStyle=orthogonalEdgeStyle;rounded=0;orthogonalLoop=1;jettySize=auto;html=1;entryX=0.5;entryY=0;entryDx=0;entryDy=0;" parent="1" source="1qt5TFDMoVAEqo-lHvC4-34" target="1qt5TFDMoVAEqo-lHvC4-36" edge="1">
                    <mxGeometry relative="1" as="geometry"/>
                </mxCell>
                <mxCell id="1qt5TFDMoVAEqo-lHvC4-113" value="False" style="edgeLabel;html=1;align=center;verticalAlign=middle;resizable=0;points=[];" parent="1qt5TFDMoVAEqo-lHvC4-42" vertex="1" connectable="0">
                    <mxGeometry x="-0.1924" relative="1" as="geometry">
                        <mxPoint as="offset"/>
                    </mxGeometry>
                </mxCell>
                <mxCell id="1qt5TFDMoVAEqo-lHvC4-63" style="edgeStyle=orthogonalEdgeStyle;rounded=0;orthogonalLoop=1;jettySize=auto;html=1;entryX=0;entryY=0.5;entryDx=0;entryDy=0;" parent="1" source="1qt5TFDMoVAEqo-lHvC4-34" target="1qt5TFDMoVAEqo-lHvC4-62" edge="1">
                    <mxGeometry relative="1" as="geometry"/>
                </mxCell>
                <mxCell id="1qt5TFDMoVAEqo-lHvC4-112" value="True" style="edgeLabel;html=1;align=center;verticalAlign=middle;resizable=0;points=[];" parent="1qt5TFDMoVAEqo-lHvC4-63" vertex="1" connectable="0">
                    <mxGeometry x="-0.248" y="1" relative="1" as="geometry">
                        <mxPoint as="offset"/>
                    </mxGeometry>
                </mxCell>
                <mxCell id="1qt5TFDMoVAEqo-lHvC4-34" value="Pilihan = 3" style="rhombus;whiteSpace=wrap;html=1;" parent="1" vertex="1">
                    <mxGeometry x="358.5" y="1040" width="120" height="90" as="geometry"/>
                </mxCell>
                <mxCell id="1qt5TFDMoVAEqo-lHvC4-43" style="edgeStyle=orthogonalEdgeStyle;rounded=0;orthogonalLoop=1;jettySize=auto;html=1;entryX=0.5;entryY=0;entryDx=0;entryDy=0;" parent="1" source="1qt5TFDMoVAEqo-lHvC4-36" target="1qt5TFDMoVAEqo-lHvC4-37" edge="1">
                    <mxGeometry relative="1" as="geometry"/>
                </mxCell>
                <mxCell id="1qt5TFDMoVAEqo-lHvC4-116" value="False" style="edgeLabel;html=1;align=center;verticalAlign=middle;resizable=0;points=[];" parent="1qt5TFDMoVAEqo-lHvC4-43" vertex="1" connectable="0">
                    <mxGeometry x="-0.2495" y="-1" relative="1" as="geometry">
                        <mxPoint as="offset"/>
                    </mxGeometry>
                </mxCell>
                <mxCell id="1qt5TFDMoVAEqo-lHvC4-36" value="Pilihan = 4" style="rhombus;whiteSpace=wrap;html=1;" parent="1" vertex="1">
                    <mxGeometry x="358.5" y="1180" width="120" height="90" as="geometry"/>
                </mxCell>
                <mxCell id="1qt5TFDMoVAEqo-lHvC4-44" style="edgeStyle=orthogonalEdgeStyle;rounded=0;orthogonalLoop=1;jettySize=auto;html=1;entryX=0.5;entryY=0;entryDx=0;entryDy=0;" parent="1" source="1qt5TFDMoVAEqo-lHvC4-37" target="1qt5TFDMoVAEqo-lHvC4-38" edge="1">
                    <mxGeometry relative="1" as="geometry"/>
                </mxCell>
                <mxCell id="1qt5TFDMoVAEqo-lHvC4-118" value="False" style="edgeLabel;html=1;align=center;verticalAlign=middle;resizable=0;points=[];" parent="1qt5TFDMoVAEqo-lHvC4-44" vertex="1" connectable="0">
                    <mxGeometry x="-0.1543" y="-1" relative="1" as="geometry">
                        <mxPoint as="offset"/>
                    </mxGeometry>
                </mxCell>
                <mxCell id="1qt5TFDMoVAEqo-lHvC4-37" value="Pilihan = 5" style="rhombus;whiteSpace=wrap;html=1;" parent="1" vertex="1">
                    <mxGeometry x="358.5" y="1320" width="120" height="90" as="geometry"/>
                </mxCell>
                <mxCell id="1qt5TFDMoVAEqo-lHvC4-45" style="edgeStyle=orthogonalEdgeStyle;rounded=0;orthogonalLoop=1;jettySize=auto;html=1;entryX=0.5;entryY=0;entryDx=0;entryDy=0;" parent="1" source="1qt5TFDMoVAEqo-lHvC4-38" target="1qt5TFDMoVAEqo-lHvC4-40" edge="1">
                    <mxGeometry relative="1" as="geometry"/>
                </mxCell>
                <mxCell id="1qt5TFDMoVAEqo-lHvC4-120" value="False" style="edgeLabel;html=1;align=center;verticalAlign=middle;resizable=0;points=[];" parent="1qt5TFDMoVAEqo-lHvC4-45" vertex="1" connectable="0">
                    <mxGeometry x="-0.2686" relative="1" as="geometry">
                        <mxPoint as="offset"/>
                    </mxGeometry>
                </mxCell>
                <mxCell id="1qt5TFDMoVAEqo-lHvC4-74" style="edgeStyle=orthogonalEdgeStyle;rounded=0;orthogonalLoop=1;jettySize=auto;html=1;entryX=0;entryY=0.5;entryDx=0;entryDy=0;" parent="1" source="1qt5TFDMoVAEqo-lHvC4-38" target="1qt5TFDMoVAEqo-lHvC4-71" edge="1">
                    <mxGeometry relative="1" as="geometry"/>
                </mxCell>
                <mxCell id="1qt5TFDMoVAEqo-lHvC4-119" value="True" style="edgeLabel;html=1;align=center;verticalAlign=middle;resizable=0;points=[];" parent="1qt5TFDMoVAEqo-lHvC4-74" vertex="1" connectable="0">
                    <mxGeometry x="-0.2714" relative="1" as="geometry">
                        <mxPoint as="offset"/>
                    </mxGeometry>
                </mxCell>
                <mxCell id="1qt5TFDMoVAEqo-lHvC4-38" value="Pilihan = 6" style="rhombus;whiteSpace=wrap;html=1;" parent="1" vertex="1">
                    <mxGeometry x="358.5" y="1460" width="120" height="90" as="geometry"/>
                </mxCell>
                <mxCell id="1qt5TFDMoVAEqo-lHvC4-47" style="edgeStyle=orthogonalEdgeStyle;rounded=0;orthogonalLoop=1;jettySize=auto;html=1;entryX=0.5;entryY=0;entryDx=0;entryDy=0;" parent="1" source="1qt5TFDMoVAEqo-lHvC4-40" target="1qt5TFDMoVAEqo-lHvC4-46" edge="1">
                    <mxGeometry relative="1" as="geometry"/>
                </mxCell>
                <mxCell id="1qt5TFDMoVAEqo-lHvC4-122" value="False" style="edgeLabel;html=1;align=center;verticalAlign=middle;resizable=0;points=[];" parent="1qt5TFDMoVAEqo-lHvC4-47" vertex="1" connectable="0">
                    <mxGeometry x="-0.2876" relative="1" as="geometry">
                        <mxPoint as="offset"/>
                    </mxGeometry>
                </mxCell>
                <mxCell id="1qt5TFDMoVAEqo-lHvC4-40" value="Pilihan = 7" style="rhombus;whiteSpace=wrap;html=1;" parent="1" vertex="1">
                    <mxGeometry x="358.5" y="1600" width="120" height="90" as="geometry"/>
                </mxCell>
                <mxCell id="1qt5TFDMoVAEqo-lHvC4-46" value="Default" style="rhombus;whiteSpace=wrap;html=1;" parent="1" vertex="1">
                    <mxGeometry x="358.5" y="1740" width="120" height="90" as="geometry"/>
                </mxCell>
                <mxCell id="1qt5TFDMoVAEqo-lHvC4-84" style="edgeStyle=orthogonalEdgeStyle;rounded=0;orthogonalLoop=1;jettySize=auto;html=1;entryX=1;entryY=0.5;entryDx=0;entryDy=0;" parent="1" source="1qt5TFDMoVAEqo-lHvC4-58" target="1qt5TFDMoVAEqo-lHvC4-80" edge="1">
                    <mxGeometry relative="1" as="geometry">
                        <Array as="points">
                            <mxPoint x="800" y="800"/>
                            <mxPoint x="800" y="1920"/>
                        </Array>
                    </mxGeometry>
                </mxCell>
                <mxCell id="1qt5TFDMoVAEqo-lHvC4-58" value="Memanggil&lt;br&gt;Fungsi&lt;br&gt;TambahBarang" style="rounded=0;whiteSpace=wrap;html=1;" parent="1" vertex="1">
                    <mxGeometry x="560" y="760" width="160" height="80" as="geometry"/>
                </mxCell>
                <mxCell id="1qt5TFDMoVAEqo-lHvC4-59" style="edgeStyle=orthogonalEdgeStyle;rounded=0;orthogonalLoop=1;jettySize=auto;html=1;entryX=0.01;entryY=0.565;entryDx=0;entryDy=0;entryPerimeter=0;" parent="1" source="1qt5TFDMoVAEqo-lHvC4-27" target="1qt5TFDMoVAEqo-lHvC4-58" edge="1">
                    <mxGeometry relative="1" as="geometry"/>
                </mxCell>
                <mxCell id="1qt5TFDMoVAEqo-lHvC4-108" value="True" style="edgeLabel;html=1;align=center;verticalAlign=middle;resizable=0;points=[];" parent="1qt5TFDMoVAEqo-lHvC4-59" vertex="1" connectable="0">
                    <mxGeometry x="-0.2528" relative="1" as="geometry">
                        <mxPoint as="offset"/>
                    </mxGeometry>
                </mxCell>
                <mxCell id="1qt5TFDMoVAEqo-lHvC4-87" style="edgeStyle=orthogonalEdgeStyle;rounded=0;orthogonalLoop=1;jettySize=auto;html=1;endArrow=none;endFill=0;" parent="1" source="1qt5TFDMoVAEqo-lHvC4-60" edge="1">
                    <mxGeometry relative="1" as="geometry">
                        <mxPoint x="800" y="945" as="targetPoint"/>
                    </mxGeometry>
                </mxCell>
                <mxCell id="1qt5TFDMoVAEqo-lHvC4-60" value="Memanggil&lt;br&gt;Fungsi&lt;br&gt;TampilSemuaBarang" style="rounded=0;whiteSpace=wrap;html=1;" parent="1" vertex="1">
                    <mxGeometry x="560" y="905" width="160" height="80" as="geometry"/>
                </mxCell>
                <mxCell id="1qt5TFDMoVAEqo-lHvC4-89" style="edgeStyle=orthogonalEdgeStyle;rounded=0;orthogonalLoop=1;jettySize=auto;html=1;endArrow=none;endFill=0;" parent="1" source="1qt5TFDMoVAEqo-lHvC4-62" edge="1">
                    <mxGeometry relative="1" as="geometry">
                        <mxPoint x="800" y="1085" as="targetPoint"/>
                    </mxGeometry>
                </mxCell>
                <mxCell id="1qt5TFDMoVAEqo-lHvC4-62" value="Memanggil&lt;br&gt;Fungsi&lt;br&gt;ProsesTransaksi" style="rounded=0;whiteSpace=wrap;html=1;" parent="1" vertex="1">
                    <mxGeometry x="560" y="1045" width="160" height="80" as="geometry"/>
                </mxCell>
                <mxCell id="1qt5TFDMoVAEqo-lHvC4-90" style="edgeStyle=orthogonalEdgeStyle;rounded=0;orthogonalLoop=1;jettySize=auto;html=1;endArrow=none;endFill=0;" parent="1" source="1qt5TFDMoVAEqo-lHvC4-64" edge="1">
                    <mxGeometry relative="1" as="geometry">
                        <mxPoint x="800" y="1230" as="targetPoint"/>
                    </mxGeometry>
                </mxCell>
                <mxCell id="1qt5TFDMoVAEqo-lHvC4-64" value="Memanggil&lt;br&gt;Fungsi&lt;br&gt;ProsesTransaksi" style="rounded=0;whiteSpace=wrap;html=1;" parent="1" vertex="1">
                    <mxGeometry x="560" y="1190" width="160" height="80" as="geometry"/>
                </mxCell>
                <mxCell id="1qt5TFDMoVAEqo-lHvC4-67" style="edgeStyle=orthogonalEdgeStyle;rounded=0;orthogonalLoop=1;jettySize=auto;html=1;entryX=-0.009;entryY=0.437;entryDx=0;entryDy=0;entryPerimeter=0;" parent="1" source="1qt5TFDMoVAEqo-lHvC4-36" target="1qt5TFDMoVAEqo-lHvC4-64" edge="1">
                    <mxGeometry relative="1" as="geometry"/>
                </mxCell>
                <mxCell id="1qt5TFDMoVAEqo-lHvC4-115" value="True" style="edgeLabel;html=1;align=center;verticalAlign=middle;resizable=0;points=[];" parent="1qt5TFDMoVAEqo-lHvC4-67" vertex="1" connectable="0">
                    <mxGeometry x="-0.1386" y="2" relative="1" as="geometry">
                        <mxPoint as="offset"/>
                    </mxGeometry>
                </mxCell>
                <mxCell id="1qt5TFDMoVAEqo-lHvC4-91" style="edgeStyle=orthogonalEdgeStyle;rounded=0;orthogonalLoop=1;jettySize=auto;html=1;endArrow=none;endFill=0;" parent="1" source="1qt5TFDMoVAEqo-lHvC4-68" edge="1">
                    <mxGeometry relative="1" as="geometry">
                        <mxPoint x="799.9999999999998" y="1360.0000000000002" as="targetPoint"/>
                    </mxGeometry>
                </mxCell>
                <mxCell id="1qt5TFDMoVAEqo-lHvC4-68" value="Memanggil&lt;br&gt;Fungsi&lt;br&gt;ProsesTransaksi" style="rounded=0;whiteSpace=wrap;html=1;" parent="1" vertex="1">
                    <mxGeometry x="560" y="1320" width="160" height="80" as="geometry"/>
                </mxCell>
                <mxCell id="1qt5TFDMoVAEqo-lHvC4-70" style="edgeStyle=orthogonalEdgeStyle;rounded=0;orthogonalLoop=1;jettySize=auto;html=1;entryX=0;entryY=0.563;entryDx=0;entryDy=0;entryPerimeter=0;" parent="1" source="1qt5TFDMoVAEqo-lHvC4-37" target="1qt5TFDMoVAEqo-lHvC4-68" edge="1">
                    <mxGeometry relative="1" as="geometry"/>
                </mxCell>
                <mxCell id="1qt5TFDMoVAEqo-lHvC4-117" value="True" style="edgeLabel;html=1;align=center;verticalAlign=middle;resizable=0;points=[];" parent="1qt5TFDMoVAEqo-lHvC4-70" vertex="1" connectable="0">
                    <mxGeometry x="-0.2472" relative="1" as="geometry">
                        <mxPoint as="offset"/>
                    </mxGeometry>
                </mxCell>
                <mxCell id="1qt5TFDMoVAEqo-lHvC4-92" style="edgeStyle=orthogonalEdgeStyle;rounded=0;orthogonalLoop=1;jettySize=auto;html=1;endArrow=none;endFill=0;" parent="1" source="1qt5TFDMoVAEqo-lHvC4-71" edge="1">
                    <mxGeometry relative="1" as="geometry">
                        <mxPoint x="799.9999999999998" y="1505.0000000000002" as="targetPoint"/>
                    </mxGeometry>
                </mxCell>
                <mxCell id="1qt5TFDMoVAEqo-lHvC4-71" value="Memanggil&lt;br&gt;Fungsi&lt;br&gt;ProsesTransaksi" style="rounded=0;whiteSpace=wrap;html=1;" parent="1" vertex="1">
                    <mxGeometry x="560" y="1465" width="160" height="80" as="geometry"/>
                </mxCell>
                <mxCell id="1qt5TFDMoVAEqo-lHvC4-93" style="edgeStyle=orthogonalEdgeStyle;rounded=0;orthogonalLoop=1;jettySize=auto;html=1;endArrow=none;endFill=0;" parent="1" source="1qt5TFDMoVAEqo-lHvC4-73" edge="1">
                    <mxGeometry relative="1" as="geometry">
                        <mxPoint x="799.9999999999998" y="1640.0000000000002" as="targetPoint"/>
                    </mxGeometry>
                </mxCell>
                <mxCell id="1qt5TFDMoVAEqo-lHvC4-73" value="Proses&lt;br&gt;Keluar Program" style="rounded=0;whiteSpace=wrap;html=1;" parent="1" vertex="1">
                    <mxGeometry x="560" y="1600" width="160" height="80" as="geometry"/>
                </mxCell>
                <mxCell id="1qt5TFDMoVAEqo-lHvC4-77" style="edgeStyle=orthogonalEdgeStyle;rounded=0;orthogonalLoop=1;jettySize=auto;html=1;entryX=-0.013;entryY=0.569;entryDx=0;entryDy=0;entryPerimeter=0;" parent="1" source="1qt5TFDMoVAEqo-lHvC4-40" target="1qt5TFDMoVAEqo-lHvC4-73" edge="1">
                    <mxGeometry relative="1" as="geometry"/>
                </mxCell>
                <mxCell id="1qt5TFDMoVAEqo-lHvC4-121" value="True" style="edgeLabel;html=1;align=center;verticalAlign=middle;resizable=0;points=[];" parent="1qt5TFDMoVAEqo-lHvC4-77" vertex="1" connectable="0">
                    <mxGeometry x="-0.2096" y="1" relative="1" as="geometry">
                        <mxPoint as="offset"/>
                    </mxGeometry>
                </mxCell>
                <mxCell id="1qt5TFDMoVAEqo-lHvC4-94" style="edgeStyle=orthogonalEdgeStyle;rounded=0;orthogonalLoop=1;jettySize=auto;html=1;endArrow=none;endFill=0;" parent="1" edge="1">
                    <mxGeometry relative="1" as="geometry">
                        <mxPoint x="799.9999999999998" y="1780" as="targetPoint"/>
                        <mxPoint x="720" y="1780.0285714285715" as="sourcePoint"/>
                    </mxGeometry>
                </mxCell>
                <mxCell id="1qt5TFDMoVAEqo-lHvC4-83" style="edgeStyle=orthogonalEdgeStyle;rounded=0;orthogonalLoop=1;jettySize=auto;html=1;entryX=0;entryY=0.5;entryDx=0;entryDy=0;" parent="1" source="1qt5TFDMoVAEqo-lHvC4-80" target="1qt5TFDMoVAEqo-lHvC4-5" edge="1">
                    <mxGeometry relative="1" as="geometry">
                        <Array as="points">
                            <mxPoint x="80" y="1920"/>
                            <mxPoint x="80" y="360"/>
                        </Array>
                    </mxGeometry>
                </mxCell>
                <mxCell id="1qt5TFDMoVAEqo-lHvC4-124" value="True" style="edgeLabel;html=1;align=center;verticalAlign=middle;resizable=0;points=[];" parent="1qt5TFDMoVAEqo-lHvC4-83" vertex="1" connectable="0">
                    <mxGeometry x="-0.9573" relative="1" as="geometry">
                        <mxPoint as="offset"/>
                    </mxGeometry>
                </mxCell>
                <mxCell id="1qt5TFDMoVAEqo-lHvC4-80" value="Pilihan != 7" style="rhombus;whiteSpace=wrap;html=1;" parent="1" vertex="1">
                    <mxGeometry x="358.5" y="1880" width="120" height="80" as="geometry"/>
                </mxCell>
                <mxCell id="1qt5TFDMoVAEqo-lHvC4-96" style="edgeStyle=orthogonalEdgeStyle;rounded=0;orthogonalLoop=1;jettySize=auto;html=1;entryX=0.5;entryY=0;entryDx=0;entryDy=0;" parent="1" source="1qt5TFDMoVAEqo-lHvC4-95" target="1qt5TFDMoVAEqo-lHvC4-12" edge="1">
                    <mxGeometry relative="1" as="geometry"/>
                </mxCell>
                <mxCell id="1qt5TFDMoVAEqo-lHvC4-95" value="Anda Keluar Dari Program" style="shape=parallelogram;perimeter=parallelogramPerimeter;whiteSpace=wrap;html=1;fixedSize=1;" parent="1" vertex="1">
                    <mxGeometry x="320" y="2000" width="200" height="80" as="geometry"/>
                </mxCell>
                <mxCell id="1qt5TFDMoVAEqo-lHvC4-99" style="edgeStyle=orthogonalEdgeStyle;rounded=0;orthogonalLoop=1;jettySize=auto;html=1;entryX=0.492;entryY=0;entryDx=0;entryDy=0;entryPerimeter=0;" parent="1" source="1qt5TFDMoVAEqo-lHvC4-80" target="1qt5TFDMoVAEqo-lHvC4-95" edge="1">
                    <mxGeometry relative="1" as="geometry"/>
                </mxCell>
                <mxCell id="1qt5TFDMoVAEqo-lHvC4-125" value="False" style="edgeLabel;html=1;align=center;verticalAlign=middle;resizable=0;points=[];" parent="1qt5TFDMoVAEqo-lHvC4-99" vertex="1" connectable="0">
                    <mxGeometry x="-0.2509" relative="1" as="geometry">
                        <mxPoint as="offset"/>
                    </mxGeometry>
                </mxCell>
                <mxCell id="1qt5TFDMoVAEqo-lHvC4-100" value="Pilihan Tidak Valid.&lt;br&gt;Coba Lagi." style="shape=parallelogram;perimeter=parallelogramPerimeter;whiteSpace=wrap;html=1;fixedSize=1;" parent="1" vertex="1">
                    <mxGeometry x="530" y="1740" width="200" height="80" as="geometry"/>
                </mxCell>
                <mxCell id="1qt5TFDMoVAEqo-lHvC4-101" style="edgeStyle=orthogonalEdgeStyle;rounded=0;orthogonalLoop=1;jettySize=auto;html=1;entryX=0.037;entryY=0.563;entryDx=0;entryDy=0;entryPerimeter=0;" parent="1" source="1qt5TFDMoVAEqo-lHvC4-46" target="1qt5TFDMoVAEqo-lHvC4-100" edge="1">
                    <mxGeometry relative="1" as="geometry"/>
                </mxCell>
                <mxCell id="1qt5TFDMoVAEqo-lHvC4-123" value="True" style="edgeLabel;html=1;align=center;verticalAlign=middle;resizable=0;points=[];" parent="1qt5TFDMoVAEqo-lHvC4-101" vertex="1" connectable="0">
                    <mxGeometry x="-0.2494" y="1" relative="1" as="geometry">
                        <mxPoint as="offset"/>
                    </mxGeometry>
                </mxCell>
            </root>
        </mxGraphModel>
    </diagram>
</mxfile>